<?xml version="1.0" standalone="no"?>
<!DOCTYPE svg PUBLIC "-//W3C//DTD SVG 20010904//EN"
 "http://www.w3.org/TR/2001/REC-SVG-20010904/DTD/svg10.dtd">
<svg version="1.0" xmlns="http://www.w3.org/2000/svg"
 width="128.000000pt" height="128.000000pt" viewBox="0 0 128.000000 128.000000"
 preserveAspectRatio="xMidYMid meet">
<metadata>
Created by potrace 1.11, written by Peter Selinger 2001-2013
</metadata>
<g transform="translate(0.000000,128.000000) scale(0.100000,-0.100000)"
fill="#000000" stroke="none">
<path d="M498 1245 c-85 -21 -176 -66 -241 -119 -79 -65 -109 -99 -156 -181
-136 -235 -97 -543 93 -736 88 -90 188 -146 308 -174 75 -17 210 -19 263 -4
21 7 39 4 63 -7 30 -14 35 -14 65 3 18 11 42 34 54 53 13 18 44 49 71 68 158
117 251 323 239 526 -10 163 -65 285 -181 402 -81 81 -136 116 -239 151 -89
31 -250 39 -339 18z m282 -95 c145 -49 254 -148 312 -285 32 -75 39 -104 43
-182 7 -117 -45 -269 -124 -360 l-27 -33 -18 61 c-32 104 -147 205 -253 222
-31 5 -30 3 38 -66 83 -85 129 -169 129 -237 0 -58 -13 -71 -100 -100 -132
-44 -296 -28 -418 42 -110 62 -209 189 -243 311 -16 57 -20 181 -7 242 27 131
129 274 242 340 125 73 291 90 426 45z"/>
<path d="M368 1002 c-25 -3 -28 -7 -29 -45 -2 -51 -2 -44 5 -90 17 -105 98
-176 235 -206 29 -6 56 -11 61 -11 15 0 12 131 -4 183 -16 54 -44 92 -91 124
-38 26 -135 50 -177 45z"/>
<path d="M880 924 c-118 -31 -178 -105 -188 -230 -6 -75 0 -84 56 -78 91 9
142 30 184 78 36 40 49 84 54 174 l3 72 -27 -1 c-15 0 -52 -7 -82 -15z"/>
<path d="M444 612 c-81 -24 -141 -74 -175 -147 -10 -21 -16 -42 -13 -46 10
-16 108 -41 162 -40 100 0 193 57 227 138 20 47 20 48 -17 71 -51 32 -125 41
-184 24z"/>
</g>
</svg>
